<svg preserveAspectRatio="none" width="100%" height="100%" overflow="visible" style="display: block;" viewBox="0 0 161.001 161.001" fill="none" xmlns="http://www.w3.org/2000/svg">
<path id="Dawn" d="M80.5004 0.000387511L80.516 80.4212L111.307 6.12806L80.5452 80.4335L137.422 23.5783L80.5672 80.4556L154.873 49.6942L80.5796 80.4848L161 80.5004L80.5796 80.516L154.873 111.307L80.5672 80.5452L137.422 137.422L80.5452 80.5672L111.307 154.873L80.516 80.5796L80.5004 161L80.4848 80.5796L49.6942 154.873L80.4556 80.5672L23.5783 137.422L80.4335 80.5452L6.12806 111.307L80.4212 80.516L0.000387511 80.5004L80.4212 80.4848L6.12806 49.6942L80.4335 80.4556L23.5783 23.5783L80.4556 80.4335L49.6942 6.12806L80.4848 80.4212L80.5004 0.000387511Z" fill="var(--fill-0, #F0C3D2)" stroke="var(--stroke-0, #4F4F4F)" stroke-width="4"/>
</svg>
