<svg width="161" height="161" viewBox="0 0 161 161" fill="none" xmlns="http://www.w3.org/2000/svg">
<path d="M80.5004 0.000366211L80.5159 80.4212L111.307 6.12804L80.5452 80.4335L137.422 23.5783L80.5672 80.4556L154.873 49.6942L80.5796 80.4848L161 80.5004L80.5796 80.5159L154.873 111.307L80.5672 80.5452L137.422 137.422L80.5452 80.5672L111.307 154.873L80.5159 80.5796L80.5004 161L80.4848 80.5796L49.6942 154.873L80.4556 80.5672L23.5783 137.422L80.4335 80.5452L6.12804 111.307L80.4212 80.5159L0.000366211 80.5004L80.4212 80.4848L6.12804 49.6942L80.4335 80.4556L23.5783 23.5783L80.4556 80.4335L49.6942 6.12804L80.4848 80.4212L80.5004 0.000366211Z" fill="#F0C3D2" stroke="#4F4F4F" stroke-width="4"/>
</svg>
